<?xml version="1.0" encoding="utf-8"?>
<!-- Generator: Adobe Illustrator 28.0.0, SVG Export Plug-In . SVG Version: 6.00 Build 0)  -->
<svg version="1.1" id="Слой_1" xmlns="http://www.w3.org/2000/svg" xmlns:xlink="http://www.w3.org/1999/xlink" x="0px" y="0px"
	 viewBox="0 0 1000 994.1" style="enable-background:new 0 0 1000 994.1;" xml:space="preserve">
<style type="text/css">
	.st0{fill:#FFFFFF;}
	.st1{fill:#E60023;}
</style>
<path class="st0" d="M500,994.1c276.1,0,500-222.5,500-497.1C1000,222.5,776.1,0,500,0C223.9,0,0,222.5,0,497.1
	C0,771.6,223.9,994.1,500,994.1z"/>
<path class="st1" d="M314.5,958.2c-6.2-56.4-1.8-110.5,10.6-162.7l50-214.2c-8.2-26-14.4-55.8-14.4-85.6
	c0-69.5,33.8-119.2,86.8-119.2c36.8,0,63.8,25.4,63.8,74.5c0,15.5-3.2,33-9.4,52.9l-21.8,71.3c-4.4,13.7-6.2,26.6-6.2,38
	c0,49.7,38.2,77.7,86.8,77.7c86.8,0,148.8-89.4,148.8-205.5c0-129.2-85-211.8-210.6-211.8c-140,0-228.8,90.6-228.8,216.8
	c0,50.9,15.6,98.2,46.2,130.3c-10,16.7-20.6,19.9-36.8,19.9c-50,0-97.6-70.1-97.6-165.7c0-165.1,133.2-296.9,320.1-296.9
	c196.2,0,319.5,135.9,319.5,303.6c0,168.9-120,295.7-249.5,295.7c-51.2,0-96.2-21.7-127.6-60.8l-25.6,103.1
	c-13.8,53.5-34.4,103.7-67.6,152.2c46.8,14.3,93.2,22.5,148.8,22.5c276.3,0,500.1-222.4,500.1-496.8C1000,222.9,776.4,0,500.1,0
	C223.8,0,0,222.4,0,496.8C0,704.8,128.8,884.2,314.5,958.2z"/>
</svg>
